:SAMPLES-PER-SECOND 30
:FULLY-SPECIFIED
:DEGREES
412
root  -41.8986 37.6585 -31.0364 23.2186 -86.3087 19.2322
RightUpLeg  -74.8134 -15.6788 18.3992
RightLeg  34.9886 0.652951 0.22848
RightFoot  -2.65712 0.618158 -8.35506
RightToes  0.00048216 0.542163 -0.142577
Spine  74.0538 -4.75187 6.27398
Spine1  2.55614 0.951847 -6.79338
HEad  -43.6765 -4.31856 -2.77098
LeftShoulder1  5.45427 -27.5854 -10.0926
LeftArm  -91.0615 -58.2466 29.1266
LeftForeArm  8.95794 -20.7599 -3.10879
LeftHand  -0.25398 0.0180481 5.50724
RightShoulder  3.20008 14.9185 10.0895
RightArm  -75.8872 50.6087 -22.3898
RightForeArm  -18.4922 19.1847 4.53469
RightHand  -0.301172 7.01658 -3.21615
LeftUpLeg  -70.8142 13.324 -10.9795
LeftLeg  35.0858 -1.74972 -0.95977
LeftFoot  -4.61706 -0.076003 1.7679
LeftToes  1.06246e-005 4.65856e-005 -8.18501e-006
413
root  -42.0909 37.7036 -30.9912 24.844 -86.3984 17.6057
RightUpLeg  -74.3946 -15.626 18.2354
RightLeg  34.9662 0.50325 0.115472
RightFoot  -2.92422 0.583334 -8.17579
RightToes  0.00048216 0.542163 -0.142577
Spine  73.498 -4.66251 6.24901
Spine1  3.25186 0.960994 -6.70967
HEad  -43.6304 -4.21008 -2.87036
LeftShoulder1  5.26247 -27.6062 -9.39855
LeftArm  -91.4922 -58.4682 27.3864
LeftForeArm  11.4568 -21.501 -3.46399
LeftHand  -0.25398 0.0180481 5.50724
RightShoulder  3.05144 14.5843 9.53778
RightArm  -75.4921 51.3764 -21.0345
RightForeArm  -22.1279 21.0145 5.33639
RightHand  -1.12854 7.21568 -10.7599
LeftUpLeg  -70.4554 13.6143 -11.0029
LeftLeg  35.0441 -1.88388 -1.05923
LeftFoot  -4.95674 -0.0527166 1.47628
LeftToes  1.06246e-005 4.65856e-005 -8.18501e-006
414
root  -42.2561 37.7318 -30.9283 26.0751 -86.4984 16.2351
RightUpLeg  -73.9577 -15.6161 18.0499
RightLeg  35.048 0.271648 -0.0586399
RightFoot  -3.11577 0.577477 -8.30153
RightToes  0.00048216 0.542163 -0.142577
Spine  72.8433 -4.64577 6.33988
Spine1  4.24288 1.0485 -6.74899
HEad  -43.5995 -4.19524 -2.93147
LeftShoulder1  4.99844 -27.6177 -8.45331
LeftArm  -92.681 -59.0194 24.522
LeftForeArm  14.6207 -23.0469 -4.02659
LeftHand  -0.25398 0.0180481 5.50724
RightShoulder  3.03654 14.9548 9.06709
RightArm  -75.1884 51.2802 -19.9239
RightForeArm  -24.6358 22.7732 5.95496
RightHand  -2.01953 8.43789 -17.2768
LeftUpLeg  -70.0249 13.6645 -10.7664
LeftLeg  35.169 -1.79027 -0.99426
LeftFoot  -5.32748 -0.0277737 1.12518
LeftToes  1.06246e-005 4.65856e-005 -8.18501e-006
415
root  -42.4006 37.7517 -30.8613 23.7685 -86.6574 18.245
RightUpLeg  -73.514 -15.7557 17.6712
RightLeg  35.2732 0.178109 -0.12899
RightFoot  -3.40594 0.541365 -8.11416
RightToes  0.00048216 0.542163 -0.142577
Spine  72.2939 -4.64311 6.30503
Spine1  5.27723 1.06155 -6.83064
HEad  -43.5912 -4.12062 -2.78556
LeftShoulder1  4.99372 -27.6335 -8.42714
LeftArm  -92.1163 -59.8527 21.8798
LeftForeArm  18.2842 -26.0983 -4.64484
LeftHand  -0.25398 0.0180481 5.50724
RightShoulder  3.00564 15.2525 8.58654
RightArm  -75.248 51.2537 -18.1093
RightForeArm  -25.1426 24.7592 6.47147
RightHand  -3.02245 10.3226 -22.4937
LeftUpLeg  -69.4378 13.5047 -10.495
LeftLeg  35.3774 -1.48106 -0.767701
LeftFoot  -5.67434 -0.0053333 0.799414
LeftToes  1.06246e-005 4.65856e-005 -8.18501e-006
416
root  -42.5249 37.7626 -30.7966 19.5905 -86.9224 22.0249
RightUpLeg  -73.0423 -15.8232 17.0802
RightLeg  35.6214 0.151571 -0.149361
RightFoot  -3.73141 0.493391 -7.78001
RightToes  0.00048216 0.542163 -0.142577
Spine  71.9638 -4.56556 6.0984
Spine1  6.0345 0.992937 -6.84708
HEad  -43.5552 -4.05609 -2.50218
LeftShoulder1  5.20133 -27.4459 -9.28105
LeftArm  -89.8263 -60.9153 20.1435
LeftForeArm  21.5693 -29.6729 -5.25841
LeftHand  -0.25398 0.0180481 5.50724
RightShoulder  2.85669 14.745 8.17754
RightArm  -75.5225 52.3373 -15.6476
RightForeArm  -24.8331 26.8658 6.95638
RightHand  -4.09109 12.3045 -26.842
LeftUpLeg  -68.8158 13.3944 -10.3196
LeftLeg  35.6727 -1.1074 -0.490484
LeftFoot  -6.02671 0.00307035 0.688891
LeftToes  1.06246e-005 4.65856e-005 -8.18501e-006
417
root  -42.625 37.7642 -30.7316 18.5175 -87.2244 22.7391
RightUpLeg  -72.5746 -15.6184 16.512
RightLeg  35.9465 -0.0567973 -0.311818
RightFoot  -3.86476 0.479338 -7.71779
RightToes  0.00048216 0.542163 -0.142577
Spine  71.7312 -4.41183 5.97075
Spine1  6.55719 1.03587 -6.80055
HEad  -43.6208 -4.13638 -2.21705
LeftShoulder1  5.23501 -27.0277 -9.66271
LeftArm  -88.472 -62.1438 18.7013
LeftForeArm  23.2281 -31.97 -5.71374
LeftHand  -0.25398 0.0180481 5.50724
RightShoulder  2.74747 14.0472 8.18283
RightArm  -76.1464 53.8153 -14.1402
RightForeArm  -24.3438 28.1494 7.25328
RightHand  -4.72111 13.3761 -29.0759
LeftUpLeg  -68.3595 13.4016 -10.0638
LeftLeg  36.0453 -0.770248 -0.237053
LeftFoot  -6.37542 -0.000304287 0.759754
LeftToes  1.06246e-005 4.65856e-005 -8.18501e-006
418
root  -42.6975 37.761 -30.6649 20.6098 -87.4243 20.3997
RightUpLeg  -72.1881 -15.2694 15.9983
RightLeg  36.1871 -0.468918 -0.637202
RightFoot  -3.85806 0.475893 -7.65772
RightToes  0.00048216 0.542163 -0.142577
Spine  71.4721 -4.3053 6.0647
Spine1  7.03921 1.21879 -6.77015
HEad  -43.9524 -4.30499 -1.91181
LeftShoulder1  5.04942 -26.6477 -9.22907
LeftArm  -89.2185 -63.4172 17.5047
LeftForeArm  23.2966 -32.4092 -5.8203
LeftHand  -0.25398 0.0180481 5.50724
RightShoulder  2.78293 13.9646 8.49159
RightArm  -77.4015 54.4488 -14.2028
RightForeArm  -23.3802 28.3225 7.25734
RightHand  -4.55485 13.0201 -28.5862
LeftUpLeg  -68.0782 13.2984 -9.65177
LeftLeg  36.4093 -0.427432 0.0280819
LeftFoot  -6.63894 0.000363251 0.765467
LeftToes  1.06246e-005 4.65856e-005 -8.18501e-006
